<?xml version="1.0" encoding="utf-8"?>
<!-- Generator: Adobe Illustrator 25.1.0, SVG Export Plug-In . SVG Version: 6.00 Build 0)  -->
<svg version="1.1" id="Capa_1" xmlns="http://www.w3.org/2000/svg" xmlns:xlink="http://www.w3.org/1999/xlink" x="0px" y="0px"
	 viewBox="0 0 60.26 70.81" style="enable-background:new 0 0 60.26 70.81;" xml:space="preserve">
<style type="text/css">
	.st0{fill:#FFFFFF;}
</style>
<g>
	<rect x="10.33" y="16.3" class="st0" width="42.65" height="33.29"/>
	<rect x="10.33" y="50.71" class="st0" width="42.65" height="3.48"/>
	<rect x="10.33" y="54.98" class="st0" width="42.65" height="3.48"/>
	<rect x="10.33" y="59.49" class="st0" width="42.65" height="3.48"/>
	<g>
		<path class="st0" d="M11.31,9.01c0.6-0.61,1.43-1,2.36-1c1.56,0,2.79,0.96,3.18,2.48h-0.98c-0.36-1.01-1.2-1.52-2.21-1.52
			c-0.65,0-1.25,0.28-1.68,0.72c-0.43,0.44-0.7,1.04-0.7,1.73c0,0.67,0.27,1.27,0.7,1.71c0.43,0.44,1.03,0.72,1.68,0.72
			c1.03,0,1.91-0.59,2.26-1.61h0.97c-0.39,1.53-1.64,2.57-3.23,2.57c-0.93,0-1.77-0.38-2.36-1c-0.59-0.62-0.98-1.46-0.98-2.39
			C10.33,10.47,10.72,9.63,11.31,9.01z"/>
		<path class="st0" d="M17.41,12.75v-4.7h1v4.71c0,0.74,0.81,1.11,1.53,1.11c0.71,0,1.52-0.38,1.52-1.12v-4.7h1v4.71
			c0,1.37-1.35,2.08-2.52,2.08C18.74,14.84,17.41,14.13,17.41,12.75z"/>
		<path class="st0" d="M25.98,8.05c0.86,0,1.41,0.48,1.66,1.11c0.27,0.66,0.19,1.43-0.5,1.91c0.78,0.33,1.06,1.04,1.06,1.67
			c0,1.01-0.67,2.03-1.98,2.03h-3.08V8.05H25.98z M24.12,10.72h1.84c1.07,0,1.09-1.75,0.02-1.75h-1.86V10.72z M24.12,13.83h2.11
			c0.66,0,1-0.55,1-1.08c0-0.53-0.33-1.07-1-1.07h-2.11V13.83z"/>
		<path class="st0" d="M29.54,8.74c0.62-0.65,1.5-1.06,2.46-1.06c0.97,0,1.84,0.41,2.47,1.06c0.61,0.65,1.02,1.54,1.02,2.53
			c0,0.99-0.4,1.88-1.02,2.53c-0.63,0.66-1.5,1.06-2.47,1.06c-0.96,0-1.84-0.4-2.46-1.06c-0.62-0.65-1.02-1.54-1.02-2.53
			C28.53,10.28,28.93,9.39,29.54,8.74z M33.77,9.46C33.31,8.99,32.68,8.7,32,8.7c-0.67,0-1.3,0.29-1.75,0.76
			c-0.45,0.46-0.73,1.1-0.73,1.81s0.28,1.35,0.73,1.81c0.45,0.47,1.07,0.76,1.75,0.76c0.67,0,1.31-0.29,1.77-0.76
			c0.44-0.46,0.72-1.09,0.72-1.81C34.49,10.55,34.21,9.92,33.77,9.46z"/>
		<path class="st0" d="M38.56,8.6c2.24,0,3.36,1.55,3.36,3.09s-1.12,3.08-3.36,3.08h-2.45V8.6H38.56z M38.56,13.88
			c1.58,0,2.38-1.1,2.38-2.19s-0.8-2.2-2.38-2.2H37.1v4.39H38.56z"/>
		<path class="st0" d="M45.91,12.99l-1.23-3.12c-0.26,0.55-1.83,4.4-2.04,4.9h-1.06l2.74-6.13h0.72l2.74,6.13h-1.05L45.91,12.99z
			 M44.69,10.03"/>
		<path class="st0" d="M48.88,8.05v6.72H47.9V8.05H48.88z"/>
		<rect x="32.01" y="7.68" class="st0" width="16.87" height="0.92"/>
		<polygon class="st0" points="49.09,11.2 51.47,8.08 52.71,8.08 50.11,11.42 52.98,14.8 51.7,14.8 49.09,11.69 		"/>
	</g>
</g>
</svg>
